<svg xmlns="http://www.w3.org/2000/svg" xml:space="preserve" width="309.099" height="309.099" viewBox="0 0 81.782 81.782"><g transform="translate(139.997 -153.237)"><rect width="81.782" height="81.782" x="-139.997" y="153.237" ry="5.738" style="fill:none;fill-opacity:1;stroke:none;stroke-width:.374447"/><path d="M-89.703 210.854v13.432a2.686 2.686 0 0 1-2.687 2.687h-13.432a2.686 2.686 0 0 1-2.687-2.687v-13.432c0-1.484 1.203-2.65 2.687-2.65h13.432c1.482-.037 2.687 1.204 2.687 2.65zm0-23.442v13.433a2.686 2.686 0 0 1-2.687 2.686h-13.432a2.686 2.686 0 0 1-2.687-2.686v-13.433c0-1.483 1.203-2.648 2.687-2.648h13.432c1.482-.038 2.687 1.202 2.687 2.648zm-23.49-23.46v13.433a2.686 2.686 0 0 1-2.687 2.687h-13.432a2.686 2.686 0 0 1-2.687-2.687v-13.432c0-1.484 1.203-2.65 2.687-2.65h13.432c1.482-.037 2.687 1.204 2.687 2.65zm46.98 0v13.433a2.686 2.686 0 0 1-2.687 2.687h-13.432a2.686 2.686 0 0 1-2.687-2.687v-13.432c0-1.484 1.203-2.65 2.687-2.65H-68.9c1.482-.037 2.687 1.204 2.687 2.65zm-39.61 12.444v-1.679h-2.686v1.68a3.699 3.699 0 0 0 3.694 3.693h1.68v-2.686h-1.68a1.01 1.01 0 0 1-1.007-1.008zm0-8.395h-2.686v5.373h2.687zm4.03 12.089h5.374v-2.686h-5.373zm-6.716-15.111v1.679h2.687v-1.68a1.01 1.01 0 0 1 1.007-1.007h1.68v-2.686h-1.68a3.698 3.698 0 0 0-3.694 3.694zm6.717-1.008h5.373v-2.686h-5.373zm8.395-2.686h-1.68v2.686h1.68a1.01 1.01 0 0 1 1.007 1.008v1.679h2.687v-1.68a3.699 3.699 0 0 0-3.694-3.693zm1.007 12.089h2.687V168h-2.687zm0 3.022c0 .555-.452 1.008-1.007 1.008h-1.68v2.686h1.68a3.698 3.698 0 0 0 3.694-3.694v-1.679h-2.687z" style="fill:#8ac2ff;fill-opacity:1;stroke:none;stroke-width:.0419763"/></g></svg>
